**ABCDEFGHIJKLMNOPQRSTUVWXYZabcdefghijklmnopqrstuvwxyz**************************
**PARASOLID !"#$%&'()*+,-./:;<=>?@[\]^_`{|}~0123456789**************************
**PART1;
MC=x86;
MC_MODEL=x86 Family 15 Model 2 Stepping 9, GenuineIntel;
MC_ID=unknown;
OS=Windows_NT;
OS_RELEASE=unknown;
FRU=Parasolid Version 15.0, build 166,  8-21-2003;
APPL=SolidWorks 2004-2003240;
SITE=;
USER=unknown;
FORMAT=text;
GUISE=transmit;
KEY=block100.xmt_txt;
FILE=block100.xmt_txt;
DATE=Wed Nov 02 11:19:57 2005;
**PART2;
SCH=SCH_1500166_15003;
USFLD_SIZE=0;
**PART3;
**END_OF_HEADER*****************************************************************
T51 : TRANSMIT FILE created by modeller version 150016623 SCH_1500166_15003_1300
6185 0 12 255 1 150 0 2 0 0 0 0 1e3 1e-8 0 3 0 1 0 1 1 4 5 6 7 8 9 10 70 11 CI9
 list_type0 0 1 uI10 notransmit0 0 1 lCCCDCCDI12 finger_index0 0 1 dI12 finger_b
lock1012 0 CZ2 0 4 T1 0 0 2 20 1 11 11 13 255 4 90 0 1 0 12 0 0 13 0 50 255 5 89
 0 12 14 0 0 +0 .1 0 1 0 0 0 0 -1 30 255 6 85 0 9 15 0 0 +0 .1 0 0 -1 0 29 255 7
 23 0 10 16 0 0 .1 -.1 19 255 8 24 0 1 13 0 17 V16 255 9 73 0 ?18 0 19 6 0 0 1 1
8 255 10 22 0 20 0 21 7 ?1 17 255 20 0 22 23 24 10 25 26 0 27 +18 21 20 0 24 10
 28 16 ?1 17 24 0 22 20 29 21 30 31 0 32 +18 28 18 0 29 21 33 34 ?1 29 16 21 0 2
1 34 7 .1 .1 -.1 29 34 19 0 28 35 16 .1 .1 0 29 35 17 0 33 36 34 0 .1 0 18 33 16
 0 37 28 38 35 ?1 29 36 66 0 38 39 35 0 0 -.1 18 38 57 0 40 33 41 36 ?1 29 39 67
 0 41 42 36 .1 0 -.1 18 41 58 0 43 38 44 39 ?1 29 42 68 0 44 45 39 .1 0 0 18 44
 59 0 46 41 47 42 ?1 29 45 69 0 47 0 42 0 0 0 18 47 60 0 48 44 0 45 ?1 17 48 0 4
9 50 51 47 46 52 0 18 -15 255 49 40 0 50 53 0 17 50 0 49 54 48 38 55 56 0 0 -17
 51 0 49 48 54 44 43 57 0 0 -17 46 0 58 59 18 44 48 52 0 60 +16 52 49 0 ?46 57 5
6 61 0 0 1 17 18 0 58 46 37 47 62 9 0 55 +15 58 78 0 46 63 0 17 37 0 58 18 59 33
 29 64 0 23 -17 62 0 65 66 55 33 18 9 0 0 -17 55 0 65 62 67 47 50 56 0 0 +15 65
 80 0 55 12 0 17 67 0 65 55 66 38 27 68 0 50 +16 56 53 0 ?55 52 0 69 0 0 1 30 69
 65 0 56 0 61 0 +0 0 0 0 0 1 30 61 64 0 52 69 70 0 +0 0 0 1 0 0 30 70 63 0 57 61
 71 0 +.1 0 0 0 0 -1 16 57 45 0 ?43 72 52 70 0 0 1 30 71 62 0 72 70 73 0 +0 0 -.
1 -1 0 0 16 72 41 0 ?40 74 57 71 0 0 1 30 73 5 0 74 71 75 0 +0 .1 0 0 0 1 16 74
 4 0 ?23 64 72 73 0 0 1 30 75 8 0 64 73 76 0 +0 .1 0 1 0 0 16 64 7 0 ?29 31 74 7
5 0 0 1 30 76 11 0 31 75 77 0 +.1 .1 0 0 0 -1 16 31 10 0 ?24 26 64 76 0 0 1 30 7
7 14 0 26 76 78 0 +0 .1 -.1 -1 0 0 16 26 13 0 ?20 68 31 77 0 0 1 30 78 82 0 68 7
7 79 0 +0 .1 -.1 0 -1 0 16 68 70 0 ?67 80 26 78 0 0 1 30 79 83 0 80 78 15 0 +.1
 .1 -.1 0 -1 0 16 80 71 0 ?81 19 68 79 0 0 1 30 15 84 0 19 79 6 0 +.1 .1 0 0 -1
 0 16 19 72 0 ?60 9 80 15 0 0 1 17 60 0 82 43 30 44 59 19 0 51 +15 82 76 0 43 83
 0 17 43 0 82 32 60 41 51 57 0 81 +17 30 0 82 60 32 28 24 31 0 0 -17 59 0 58 37
 46 28 60 19 0 30 -17 32 0 82 30 43 21 81 80 0 25 -17 81 0 84 40 25 41 32 80 0 5
4 +17 25 0 84 81 27 21 20 26 0 0 -15 84 74 0 40 85 0 17 27 0 84 25 40 10 67 68 0
 66 -17 40 0 84 27 81 38 54 72 0 67 +17 66 0 65 67 62 10 23 74 0 0 -17 23 0 22 2
9 20 33 66 74 0 62 +15 22 3 0 23 86 0 17 29 0 22 24 23 28 37 64 0 59 +14 255 86
 1 87 ?53 85 22 4 88 -0 0 53 85 17 81 255 1 87 145 89 86 90 0 0 91 92 14 53 39 9
1 ?0 86 49 4 93 +0 0 0 86 17 14 85 75 94 ?86 83 84 4 95 -0 0 86 83 17 50 88 2 0
 86 93 95 0 +0 .1 -.1 0 -1 0 0 0 -1 13 17 25 0 0 0 0 0 0 8 12 14 12 81 96 ?63 0
 65 4 5 -0 0 63 0 17 81 1 96 148 89 12 97 0 94 98 99 14 63 79 98 ?83 12 58 4 14
 -0 0 83 12 17 81 1 98 149 89 63 100 0 96 101 102 14 83 77 101 ?85 63 82 4 103 -
0 0 85 63 17 50 14 88 0 63 103 5 0 +0 .1 0 0 0 -1 -1 0 0 50 103 87 0 83 95 14 0
 +.1 .1 0 -1 0 0 0 0 1 50 95 86 0 85 88 103 0 +0 .1 -.1 0 0 1 1 0 0 81 1 101 150
 89 83 104 0 98 0 105 80 255 1 89 106 107 9000 1 1 1 1 1 1 1 1 0 FFFFTFTFFFFFFF1
 81 1 104 129 108 83 0 101 100 109 110 82 255 1 105 1507429 80 1 108 0 111 8001
 0 0 0 0 3 5 0 0 0 FFFFTFTFFFFFFF2 81 1 100 128 108 63 0 98 97 104 112 81 1 109
 130 108 85 0 94 104 90 113 83 255 3 110 .752941176470588 .752941176470588 .7529
41176470588 81 1 94 147 89 85 109 0 91 96 114 81 1 90 131 108 86 0 87 109 115 11
6 83 3 113 .752941176470588 .752941176470588 .752941176470588 81 1 115 132 108 5
3 0 91 90 0 117 83 3 116 .752941176470588 .752941176470588 .752941176470588 81 1
 91 146 89 53 115 0 87 94 118 83 3 117 .752941176470588 .752941176470588 .752941
176470588 82 1 118 1507429 82 1 114 1507429 81 1 97 127 108 12 0 96 0 100 119 83
 3 112 .752941176470588 .752941176470588 .752941176470588 83 3 119 .752941176470
588 .752941176470588 .752941176470588 79 255 15 111 SDL/TYSA_COLOUR79 14 107 SWE
ntUnchanged82 1 102 1507429 82 1 99 1507429 50 93 61 0 53 0 88 0 +0 0 -.1 0 -1 0
 0 0 -1 82 1 92 1507429 17 54 0 49 51 50 41 40 72 0 0 -19 13 91 0 1 0 8 4 S74 25
5 20 11 2 0 101 115 0 0 0 0 0 0 0 0 0 0 0 0 0 0 0 0 0 0 1 0 
