**ABCDEFGHIJKLMNOPQRSTUVWXYZabcdefghijklmnopqrstuvwxyz**************************
**PARASOLID !"#$%&'()*+,-./:;<=>?@[\]^_`{|}~0123456789**************************
**PART1;
MC=x86;
MC_MODEL=x86 Family 15 Model 4 Stepping 7, GenuineIntel;
MC_ID=unknown;
OS=Windows_NT;
OS_RELEASE=unknown;
FRU=Parasolid Version 18.1, build 228,  6-21-2007;
APPL=SolidWorks 2008-2007250;
SITE=;
USER=unknown;
FORMAT=text;
GUISE=transmit;
KEY=holeInRectangle;
FILE=holeInRectangle.x_t;
DATE=Fri Mar 05 13:38:16 2010;
**PART2;
SCH=SCH_1801228_18106;
USFLD_SIZE=0;
**PART3;
**END_OF_HEADER*****************************************************************
T51 : TRANSMIT FILE created by modeller version 180122817 SCH_1600000_160040 12
 1 207 0 2 0 0 0 0 1e3 1e-8 0 3 0 1 0 1 1 4 5 6 7 8 9 10 70 2 0 4 T1 0 0 2 20 1
 11 11 13 4 94 0 1 0 12 0 0 13 0 50 5 93 0 14 15 0 0 +0 .04 0 1 0 0 0 0 -1 30 6
 89 0 9 16 0 0 +0 .04 0 0 -1 0 29 7 70 0 17 18 0 0 0 -.0508 19 8 28 0 1 13 0 19
 V16 9 77 0 ?20 0 21 6 0 0 1 18 10 25 0 22 0 23 24 ?1 17 22 0 25 26 27 10 28 29
 0 30 +18 23 22 0 27 10 31 32 ?1 29 24 27 0 10 32 33 0 .04 -.0508 29 32 24 0 23
 34 24 .1035326086956522 .04 -.0508 29 33 73 0 35 24 36 0 0 0 18 35 64 0 37 38 0
 33 ?1 29 36 72 0 38 33 18 .1035326086956522 0 0 18 38 63 0 39 40 35 36 ?1 29 18
 71 0 40 36 7 .1035326086956522 0 -.0508 18 40 62 0 41 17 38 18 ?1 17 41 0 42 43
 44 40 45 46 0 47 +18 17 61 0 48 49 40 7 ?1 17 48 0 50 30 47 17 51 52 0 53 +18 4
9 16 0 54 31 17 55 ?1 17 54 0 56 20 57 49 58 59 0 26 -18 31 19 0 58 23 49 34 ?1
 29 55 18 0 49 0 34 0 .04 0 29 34 21 0 31 55 32 .1035326086956522 .04 0 17 58 0
 25 27 26 31 54 59 0 57 +15 25 3 0 26 12 60 17 27 0 25 22 58 23 61 62 0 43 +17 2
6 0 25 58 22 49 63 64 0 65 +16 59 7 0 ?58 62 64 66 0 0 1 17 57 0 56 54 39 31 44
 21 0 61 -15 56 82 0 39 67 0 17 39 0 56 57 20 38 37 68 0 44 +17 44 0 42 41 61 38
 57 21 0 45 +16 21 76 0 ?44 9 69 16 0 0 1 17 61 0 42 44 43 31 27 62 0 0 -15 42 8
0 0 41 70 0 17 43 0 42 61 41 23 47 69 0 28 -16 62 10 0 ?27 29 59 71 0 0 1 16 29
 13 0 ?22 72 62 73 0 0 1 30 71 11 0 62 66 73 0 +.1035326086956522 .04 0 0 0 -1 3
0 66 8 0 59 74 71 0 +0 .04 0 1 0 0 30 73 14 0 29 71 75 0 +0 .04 -.0508 -1 0 0 30
 75 69 0 76 73 77 0 +0 0 0 0 0 1 16 76 57 0 ?78 68 79 75 0 0 1 30 77 68 0 68 75
 80 0 +0 0 0 1 0 0 16 68 53 0 ?39 46 76 77 0 0 1 30 80 67 0 46 77 81 0 +.1035326
086956522 0 0 0 0 -1 16 46 49 0 ?41 52 68 80 0 0 1 30 81 66 0 52 80 82 0 +0 0 -.
0508 -1 0 0 16 52 45 0 ?48 64 46 81 0 0 1 30 82 86 0 72 81 83 0 +0 .04 -.0508 0
 -1 0 16 72 74 0 ?53 69 29 82 0 0 1 30 83 87 0 69 82 16 0 +.1035326086956522 .04
 -.0508 0 -1 0 16 69 75 0 ?47 21 72 83 0 0 1 30 16 88 0 21 83 6 0 +.103532608695
6522 .04 0 0 -1 0 17 47 0 50 48 28 40 43 69 0 51 +15 50 78 0 48 84 0 17 28 0 50
 47 30 23 22 29 0 0 -17 51 0 85 45 86 40 48 52 0 0 -15 85 44 0 86 87 88 17 45 0
 85 37 51 38 41 46 0 0 -17 86 0 85 51 37 17 78 76 0 0 -17 37 0 85 86 45 35 39 68
 0 20 -17 78 0 89 65 53 35 86 76 0 0 +15 89 84 0 78 14 0 17 65 0 89 63 78 49 20
 9 0 0 -17 53 0 89 78 63 17 30 72 0 86 +17 63 0 89 53 65 10 26 64 0 0 -17 30 0 5
0 28 48 10 53 72 0 63 -16 64 4 0 ?26 59 52 74 0 0 1 30 74 5 0 64 90 66 0 +0 .04
 0 0 0 1 31 90 142 0 91 92 74 0 +.0218108695652174 0 -.0254 0 1 0 0 0 1 .004 16
 91 120 0 ?93 79 0 90 0 0 1 31 92 143 0 79 0 90 0 +.0218108695652174 .04 -.0254
 0 1 0 0 0 1 .004 16 79 123 0 ?94 76 91 92 0 0 1 17 94 0 95 94 94 0 96 79 0 0 +1
5 95 129 0 94 97 98 17 96 0 60 96 96 0 94 79 0 0 -15 60 115 0 96 12 0 14 12 117
 99 ?87 0 25 4 100 -0 0 87 0 19 81 1 99 201 101 12 102 0 0 103 104 14 87 111 103
 ?14 12 85 4 105 +0 0 14 12 19 50 100 2 0 12 106 105 0 +0 .04 -.0508 0 -1 0 0 0
 -1 13 19 29 0 0 0 0 0 0 8 12 51 106 139 0 97 0 100 0 -.0218108695652174 .04 -.0
254 0 -1 0 .004 0 0 -1 50 105 65 0 87 100 107 0 +0 0 -.0508 0 -1 0 0 0 -1 50 107
 90 0 84 105 108 0 +0 .04 -.0508 0 0 1 1 0 0 14 84 79 109 ?97 70 50 4 107 -0 0 9
7 70 19 50 108 91 0 70 107 15 0 +.1035326086956522 .04 0 -1 0 0 0 0 1 14 70 81 1
10 ?84 67 42 4 108 -0 0 84 67 19 50 15 92 0 67 108 5 0 +0 .04 0 0 0 -1 -1 0 0 14
 67 83 111 ?70 14 56 4 15 -0 0 70 14 19 81 1 111 205 101 67 112 0 110 113 114 14
 14 85 113 ?67 87 89 4 5 -0 0 67 87 19 81 1 113 206 101 14 115 0 111 116 117 80
 1 101 118 119 9000 1 1 1 1 1 1 1 1 0 FFFFTFTFFFFFFF1 81 1 115 182 120 14 0 113
 121 112 122 81 1 116 207 101 97 123 0 113 0 124 82 1 117 263651431 14 97 126 11
6 ?0 84 95 4 106 +0 0 0 84 19 81 1 123 186 120 97 0 116 125 0 126 82 1 124 26850
1095 80 1 120 0 127 8001 0 0 0 0 3 5 0 0 0 FFFFTFTFFFFFFF2 81 1 125 185 120 84 0
 109 128 123 129 83 3 126 .752941176470588 .752941176470588 .752941176470588 81
 1 109 203 101 84 125 0 103 110 130 81 1 128 184 120 70 0 110 112 125 131 83 3 1
29 .752941176470588 .752941176470588 .752941176470588 81 1 110 204 101 70 128 0
 109 111 132 81 1 112 183 120 67 0 111 115 128 133 83 3 131 .752941176470588 .75
2941176470588 .752941176470588 83 3 133 .752941176470588 .752941176470588 .75294
1176470588 82 1 132 263127143 81 1 103 202 101 87 121 0 99 109 134 82 1 130 2628
64999 81 1 121 181 120 87 0 103 102 115 135 82 1 134 270205031 81 1 102 180 120
 12 0 99 0 121 136 83 3 135 .752941176470588 .752941176470588 .752941176470588 8
3 3 136 .752941176470588 .752941176470588 .752941176470588 79 15 127 SDL/TYSA_CO
LOUR83 3 122 .752941176470588 .752941176470588 .752941176470588 79 14 119 SWEntU
nchanged82 1 114 263389287 82 1 104 270729319 15 98 130 0 137 97 0 17 137 0 98 1
37 137 0 93 91 0 0 -17 93 0 88 93 93 0 137 91 0 0 +15 88 108 0 93 87 0 17 20 0 5
6 39 54 35 65 9 0 78 +19 13 95 0 1 0 8 4 S74 20 11 2 0 116 123 0 0 0 0 0 0 0 0 0
 0 0 0 0 0 0 0 0 0 1 0 
